# xmcd
# Copyright (C) 1995-1998 Ti Kan
#
# Track frame offsets:
#       150
#       16237
#       31692
#       54477
#       72916
#       90513
#       117609
#       139286
#       160471
#       176664
#
# Disc length: 2731 seconds
#
# Revision: 0
# Processed by: cddbd v1.4PL0 Copyright (c) Steve Scherf et al.
# Submitted via: CD-Transfer v1.0
#
DISCID=840aa90a
DTITLE=Sheriff - Eldorado
DYEAR=2001
DGENRE=
TTITLE0=Mary Lou
TTITLE1=Run Baby Run
TTITLE2=Man With The Star
TTITLE3=Dirty Love
TTITLE4=Wings
TTITLE5=On A Night Like This
TTITLE6=Vitamin B
TTITLE7=Everything You Say
TTITLE8=Run Baby Run (Wet Version...)
TTITLE9=Black Swan
EXTD=
EXTT0=
EXTT1=
EXTT2=
EXTT3=
EXTT4=
EXTT5=
EXTT6=
EXTT7=
EXTT8=
EXTT9=
PLAYORDER=
